<svg xmlns="http://www.w3.org/2000/svg" version="1.1" xmlns:xlink="http://www.w3.org/1999/xlink" xmlns:svgjs="http://svgjs.dev/svgjs" width="100%" height="100%" viewBox="0 0 1000 600"><rect width="1000" height="600" x="0" y="0" fill="#2b3252"/><g><circle r="166.66666666666666" cx="321.6823374430338" cy="343.90454375803927" fill="#fad744" transform="matrix(0.8063703821873012,0,0,0.8063703821873012,0,22.68558411569478)"/><path d="M239.9132143446664 326.1660818663001L183.37099762073024 349.4663047507209L239.9132143446664 372.3041196837419L239.9132143446664 390.004068490099L166.03069944323963 355.78588008651747L166.03069944323963 342.6072534716246L239.9132143446664 308.466133059943L239.9132143446664 326.1660818663001ZM266.5530502114187 398.8668875585942L266.5530502114187 398.8668875585942Q266.5530502114187 394.5253906815632 269.1219832747506 391.64818565063143Q271.69091633808256 388.7452912890663 276.85447179537977 388.7452912890663Q281.9923379220437 388.7452912890663 284.6640283079089 391.64818565063143Q287.3357186937741 394.5253906815632 287.3357186937741 398.8668875585942L287.3357186937741 398.8668875585942Q287.3357186937741 403.0285591211919 284.6640283079089 405.8286961602237Q281.9923379220437 408.62883319925555 276.85447179537977 408.62883319925555Q271.69091633808256 408.62883319925555 269.1219832747506 405.8286961602237Q266.5530502114187 403.0285591211919 266.5530502114187 398.8668875585942ZM310.81576689262806 359.22825039138223L310.81576689262806 357.94378385971623Q310.81576689262806 335.4656195555618 321.4768391054557 321.77320632800246Q332.11222198764995 308.10648243107653 349.37545217324066 308.10648243107653L349.37545217324066 308.10648243107653Q366.535925036298 308.10648243107653 376.5547639832926 319.8465065305035L376.5547639832926 319.8465065305035L376.5547639832926 268.90456388463105L393.25282889495026 268.90456388463105L393.25282889495026 407.62694930455615L377.91629850685854 407.62694930455615L377.0942399265923 397.1457024061618Q367.0754009795977 409.42520244888846 349.1956268588074 409.42520244888846L349.1956268588074 409.42520244888846Q332.21497931018325 409.42520244888846 321.502528436089 395.52727457626264Q310.81576689262806 381.6036573730035 310.81576689262806 359.22825039138223L310.81576689262806 359.22825039138223ZM327.51383180428576 359.8447943265819L327.51383180428576 359.8447943265819Q327.51383180428576 376.4657912463396 334.3728830833821 385.86808625813455Q341.23193436247834 395.24469193929616 353.3572984214052 395.24469193929616L353.3572984214052 395.24469193929616Q369.2333047527966 395.24469193929616 376.5547639832926 380.9871134378038L376.5547639832926 380.9871134378038L376.5547639832926 336.1078528213947Q369.0534794383633 322.2869929406689 353.53712373583835 322.2869929406689L353.53712373583835 322.2869929406689Q341.23193436247834 322.2869929406689 334.3728830833821 331.76635594436374Q327.51383180428576 341.24571894805865 327.51383180428576 359.8447943265819ZM477.3340080578048 276.1232657925938L422.53866581693444 418.9045654525833L408.17832999290886 418.9045654525833L463.0764295563125 276.1232657925938L477.3340080578048 276.1232657925938Z " fill="#2b3252" transform="matrix(0.8063703821873012,0,0,0.8063703821873012,0,22.68558411569478)"/><path d="M645.5648714491585 326.1660818663001L589.0226547252223 349.4663047507209L645.5648714491585 372.3041196837419L645.5648714491585 390.004068490099L571.6823565477317 355.78588008651747L571.6823565477317 342.6072534716246L645.5648714491585 308.466133059943L645.5648714491585 326.1660818663001ZM672.2047073159108 398.8668875585942L672.2047073159108 398.8668875585942Q672.2047073159108 394.5253906815632 674.7736403792427 391.64818565063143Q677.3425734425747 388.7452912890663 682.5061288998719 388.7452912890663Q687.6439950265358 388.7452912890663 690.315685412401 391.64818565063143Q692.9873757982663 394.5253906815632 692.9873757982663 398.8668875585942L692.9873757982663 398.8668875585942Q692.9873757982663 403.0285591211919 690.315685412401 405.8286961602237Q687.6439950265358 408.62883319925555 682.5061288998719 408.62883319925555Q677.3425734425747 408.62883319925555 674.7736403792427 405.8286961602237Q672.2047073159108 403.0285591211919 672.2047073159108 398.8668875585942ZM716.4674239971201 359.22825039138223L716.4674239971201 357.94378385971623Q716.4674239971201 335.4656195555618 727.1284962099478 321.77320632800246Q737.763879092142 308.10648243107653 755.0271092777327 308.10648243107653L755.0271092777327 308.10648243107653Q772.1875821407901 308.10648243107653 782.2064210877846 319.8465065305035L782.2064210877846 319.8465065305035L782.2064210877846 268.90456388463105L798.9044859994423 268.90456388463105L798.9044859994423 407.62694930455615L783.5679556113506 407.62694930455615L782.7458970310844 397.1457024061618Q772.7270580840899 409.42520244888846 754.8472839632994 409.42520244888846L754.8472839632994 409.42520244888846Q737.8666364146753 409.42520244888846 727.1541855405811 395.52727457626264Q716.4674239971201 381.6036573730035 716.4674239971201 359.22825039138223L716.4674239971201 359.22825039138223ZM733.1654889087779 359.8447943265819L733.1654889087779 359.8447943265819Q733.1654889087779 376.4657912463396 740.0245401878741 385.86808625813455Q746.8835914669704 395.24469193929616 759.0089555258972 395.24469193929616L759.0089555258972 395.24469193929616Q774.8849618572887 395.24469193929616 782.2064210877846 380.9871134378038L782.2064210877846 380.9871134378038L782.2064210877846 336.1078528213947Q774.7051365428554 322.2869929406689 759.1887808403304 322.2869929406689L759.1887808403304 322.2869929406689Q746.8835914669704 322.2869929406689 740.0245401878741 331.76635594436374Q733.1654889087779 341.24571894805865 733.1654889087779 359.8447943265819ZM872.067699643136 309.3652596321092L872.067699643136 324.9073046652675Q868.2656787094048 324.2650713994345 863.847113840474 324.2650713994345L863.847113840474 324.2650713994345Q847.4059422351495 324.2650713994345 841.5487748507527 338.2657565945936L841.5487748507527 338.2657565945936L841.5487748507527 407.62694930455615L824.8250206084616 407.62694930455615L824.8250206084616 309.9047355754089L841.0863668993528 309.9047355754089L841.3689495363194 321.20804105406944Q849.5895353389816 308.10648243107653 864.6691724207401 308.10648243107653L864.6691724207401 308.10648243107653Q869.5501452410709 308.10648243107653 872.067699643136 309.3652596321092L872.067699643136 309.3652596321092ZM905.5665867889846 309.9047355754089L905.5665867889846 407.62694930455615L888.868521877327 407.62694930455615L888.868521877327 309.9047355754089L905.5665867889846 309.9047355754089ZM887.5069873537611 283.98420096638955L887.5069873537611 283.98420096638955Q887.5069873537611 279.9252867263251 889.9988524251931 277.1251496872933Q892.490717496625 274.32501264826146 897.3460009863226 274.32501264826146Q902.2269738066532 274.32501264826146 904.7702175393518 277.1251496872933Q907.2877719414171 279.9252867263251 907.2877719414171 283.98420096638955Q907.2877719414171 288.04311520645405 904.7702175393518 290.7661842535859Q902.2269738066532 293.46356397008446 897.3460009863226 293.46356397008446Q892.490717496625 293.46356397008446 889.9988524251931 290.7661842535859Q887.5069873537611 288.04311520645405 887.5069873537611 283.98420096638955ZM990.4698245321056 276.1232657925938L935.6487929606018 418.9045654525833L921.2884571365763 418.9045654525833L976.2122460306133 276.1232657925938L990.4698245321056 276.1232657925938ZM1007.9899480240293 372.58670232070835L1067.6919524158639 348.92682880742115L1007.9899480240293 325.52384860046715L1007.9899480240293 308.36337573740974L1085.1093185852544 342.50449614909127L1085.1093185852544 355.7088120946175L1007.9899480240293 389.927000498199L1007.9899480240293 372.58670232070835Z " fill="#fad744" transform="matrix(0.8063703821873012,0,0,0.8063703821873012,0,22.68558411569478)"/></g></svg>